<svg xmlns="http://www.w3.org/2000/svg" viewBox="0 0 1000 760" id="villa-svg" role="img" aria-label="Illustration of an Algarve villa whose wall, trim, shutter, door and roof colours change as you choose them">
<defs><linearGradient id="vsky" x1="0" y1="0" x2="0" y2="1"><stop offset="0" stop-color="#fdf7ee"/><stop offset="1" stop-color="#f6e6d6"/></linearGradient><clipPath id="vclip"><rect width="1000" height="760" rx="26"/></clipPath></defs>
<g clip-path="url(#vclip)">
<rect width="1000" height="760" fill="url(#vsky)"/>
<rect x="0" y="686" width="1000" height="74" fill="#cbb9a6"/>
<rect x="0" y="686" width="1000" height="7" fill="#b09c88"/>
<path d="M 600.0 428.0 L 900.0 428.0 L 750.0 344.0 Z" class="v-roof"/><path d="M 630.0 411.2 L 870.0 411.2" stroke="#3a241a" stroke-width="2.4" opacity="0.28"/><path d="M 660.0 394.4 L 840.0 394.4" stroke="#3a241a" stroke-width="2.4" opacity="0.28"/><path d="M 690.0 377.6 L 810.0 377.6" stroke="#3a241a" stroke-width="2.4" opacity="0.28"/><path d="M 720.0 360.8 L 780.0 360.8" stroke="#3a241a" stroke-width="2.4" opacity="0.28"/><path d="M 600.0 428.0 L 750.0 348.0" stroke="#3a241a" stroke-width="2" opacity="0.16"/><path d="M 626.0 428.0 L 751.6 348.0" stroke="#3a241a" stroke-width="2" opacity="0.16"/><path d="M 652.0 428.0 L 753.1 348.0" stroke="#3a241a" stroke-width="2" opacity="0.16"/><path d="M 678.0 428.0 L 754.7 348.0" stroke="#3a241a" stroke-width="2" opacity="0.16"/><path d="M 704.0 428.0 L 756.2 348.0" stroke="#3a241a" stroke-width="2" opacity="0.16"/><path d="M 730.0 428.0 L 757.8 348.0" stroke="#3a241a" stroke-width="2" opacity="0.16"/><path d="M 756.0 428.0 L 759.4 348.0" stroke="#3a241a" stroke-width="2" opacity="0.16"/><path d="M 782.0 428.0 L 760.9 348.0" stroke="#3a241a" stroke-width="2" opacity="0.16"/><path d="M 808.0 428.0 L 762.5 348.0" stroke="#3a241a" stroke-width="2" opacity="0.16"/><path d="M 834.0 428.0 L 764.0 348.0" stroke="#3a241a" stroke-width="2" opacity="0.16"/><path d="M 860.0 428.0 L 765.6 348.0" stroke="#3a241a" stroke-width="2" opacity="0.16"/><path d="M 886.0 428.0 L 767.2 348.0" stroke="#3a241a" stroke-width="2" opacity="0.16"/>
<rect x="622" y="428" width="256" height="258" class="v-wall"/>
<rect x="622" y="640" width="256" height="46" class="v-trim"/>
<rect x="770.4" y="486.0" width="24.6" height="76.0" rx="2" class="v-shutter"/><rect x="773.4" y="492.3" width="18.6" height="2.6" rx="1.3" fill="#3a241a" opacity="0.30"/><rect x="773.4" y="505.0" width="18.6" height="2.6" rx="1.3" fill="#3a241a" opacity="0.30"/><rect x="773.4" y="517.7" width="18.6" height="2.6" rx="1.3" fill="#3a241a" opacity="0.30"/><rect x="773.4" y="530.3" width="18.6" height="2.6" rx="1.3" fill="#3a241a" opacity="0.30"/><rect x="773.4" y="543.0" width="18.6" height="2.6" rx="1.3" fill="#3a241a" opacity="0.30"/><rect x="773.4" y="555.7" width="18.6" height="2.6" rx="1.3" fill="#3a241a" opacity="0.30"/><rect x="861.0" y="486.0" width="24.6" height="76.0" rx="2" class="v-shutter"/><rect x="864.0" y="492.3" width="18.6" height="2.6" rx="1.3" fill="#3a241a" opacity="0.30"/><rect x="864.0" y="505.0" width="18.6" height="2.6" rx="1.3" fill="#3a241a" opacity="0.30"/><rect x="864.0" y="517.7" width="18.6" height="2.6" rx="1.3" fill="#3a241a" opacity="0.30"/><rect x="864.0" y="530.3" width="18.6" height="2.6" rx="1.3" fill="#3a241a" opacity="0.30"/><rect x="864.0" y="543.0" width="18.6" height="2.6" rx="1.3" fill="#3a241a" opacity="0.30"/><rect x="864.0" y="555.7" width="18.6" height="2.6" rx="1.3" fill="#3a241a" opacity="0.30"/><rect x="793.0" y="479.0" width="70.0" height="90.0" rx="3" class="v-trim"/><rect x="800.0" y="486.0" width="56.0" height="76.0" fill="#3f5a68"/><path d="M 800.0 562.0 L 856.0 486.0 L 856.0 517.9 Z" fill="#587a8b" opacity="0.55"/><rect x="826.5" y="486.0" width="3" height="76.0" fill="#fbf4e8" opacity="0.85"/><rect x="800.0" y="520.2" width="56.0" height="3" fill="#fbf4e8" opacity="0.85"/><rect x="788.0" y="569.0" width="80.0" height="7" rx="2" class="v-trim"/>
<rect x="268.0" y="172.0" width="46.0" height="96.0" class="v-wall"/><rect x="274.0" y="191.2" width="7.8" height="10.6" rx="1.5" class="v-trim"/><rect x="286.4" y="191.2" width="7.8" height="10.6" rx="1.5" class="v-trim"/><rect x="298.8" y="191.2" width="7.8" height="10.6" rx="1.5" class="v-trim"/><rect x="274.0" y="210.4" width="7.8" height="10.6" rx="1.5" class="v-trim"/><rect x="286.4" y="210.4" width="7.8" height="10.6" rx="1.5" class="v-trim"/><rect x="298.8" y="210.4" width="7.8" height="10.6" rx="1.5" class="v-trim"/><rect x="274.0" y="229.6" width="7.8" height="10.6" rx="1.5" class="v-trim"/><rect x="286.4" y="229.6" width="7.8" height="10.6" rx="1.5" class="v-trim"/><rect x="298.8" y="229.6" width="7.8" height="10.6" rx="1.5" class="v-trim"/><path d="M 257.9 172.0 l 66.2 0 l -7.4 -8.6 l -51.5 0 Z" class="v-trim"/><rect x="286.4" y="155.7" width="9.2" height="8.6" rx="2" class="v-trim"/>
<path d="M 150.0 296.0 L 660.0 296.0 L 405.0 176.0 Z" class="v-roof"/><path d="M 181.9 281.0 L 628.1 281.0" stroke="#3a241a" stroke-width="2.4" opacity="0.28"/><path d="M 213.8 266.0 L 596.2 266.0" stroke="#3a241a" stroke-width="2.4" opacity="0.28"/><path d="M 245.6 251.0 L 564.4 251.0" stroke="#3a241a" stroke-width="2.4" opacity="0.28"/><path d="M 277.5 236.0 L 532.5 236.0" stroke="#3a241a" stroke-width="2.4" opacity="0.28"/><path d="M 309.4 221.0 L 500.6 221.0" stroke="#3a241a" stroke-width="2.4" opacity="0.28"/><path d="M 341.2 206.0 L 468.8 206.0" stroke="#3a241a" stroke-width="2.4" opacity="0.28"/><path d="M 373.1 191.0 L 436.9 191.0" stroke="#3a241a" stroke-width="2.4" opacity="0.28"/><path d="M 150.0 296.0 L 405.0 180.0" stroke="#3a241a" stroke-width="2" opacity="0.16"/><path d="M 176.0 296.0 L 406.6 180.0" stroke="#3a241a" stroke-width="2" opacity="0.16"/><path d="M 202.0 296.0 L 408.1 180.0" stroke="#3a241a" stroke-width="2" opacity="0.16"/><path d="M 228.0 296.0 L 409.7 180.0" stroke="#3a241a" stroke-width="2" opacity="0.16"/><path d="M 254.0 296.0 L 411.2 180.0" stroke="#3a241a" stroke-width="2" opacity="0.16"/><path d="M 280.0 296.0 L 412.8 180.0" stroke="#3a241a" stroke-width="2" opacity="0.16"/><path d="M 306.0 296.0 L 414.4 180.0" stroke="#3a241a" stroke-width="2" opacity="0.16"/><path d="M 332.0 296.0 L 415.9 180.0" stroke="#3a241a" stroke-width="2" opacity="0.16"/><path d="M 358.0 296.0 L 417.5 180.0" stroke="#3a241a" stroke-width="2" opacity="0.16"/><path d="M 384.0 296.0 L 419.0 180.0" stroke="#3a241a" stroke-width="2" opacity="0.16"/><path d="M 410.0 296.0 L 420.6 180.0" stroke="#3a241a" stroke-width="2" opacity="0.16"/><path d="M 436.0 296.0 L 422.2 180.0" stroke="#3a241a" stroke-width="2" opacity="0.16"/><path d="M 462.0 296.0 L 423.7 180.0" stroke="#3a241a" stroke-width="2" opacity="0.16"/><path d="M 488.0 296.0 L 425.3 180.0" stroke="#3a241a" stroke-width="2" opacity="0.16"/><path d="M 514.0 296.0 L 426.8 180.0" stroke="#3a241a" stroke-width="2" opacity="0.16"/><path d="M 540.0 296.0 L 428.4 180.0" stroke="#3a241a" stroke-width="2" opacity="0.16"/><path d="M 566.0 296.0 L 430.0 180.0" stroke="#3a241a" stroke-width="2" opacity="0.16"/><path d="M 592.0 296.0 L 431.5 180.0" stroke="#3a241a" stroke-width="2" opacity="0.16"/><path d="M 618.0 296.0 L 433.1 180.0" stroke="#3a241a" stroke-width="2" opacity="0.16"/><path d="M 644.0 296.0 L 434.6 180.0" stroke="#3a241a" stroke-width="2" opacity="0.16"/>
<rect x="182" y="296" width="446" height="390" class="v-wall"/>
<rect x="182" y="626" width="446" height="60" class="v-trim"/>
<rect x="230.4" y="350.0" width="32.6" height="96.0" rx="2" class="v-shutter"/><rect x="233.4" y="356.0" width="26.6" height="2.6" rx="1.3" fill="#3a241a" opacity="0.30"/><rect x="233.4" y="368.0" width="26.6" height="2.6" rx="1.3" fill="#3a241a" opacity="0.30"/><rect x="233.4" y="380.0" width="26.6" height="2.6" rx="1.3" fill="#3a241a" opacity="0.30"/><rect x="233.4" y="392.0" width="26.6" height="2.6" rx="1.3" fill="#3a241a" opacity="0.30"/><rect x="233.4" y="404.0" width="26.6" height="2.6" rx="1.3" fill="#3a241a" opacity="0.30"/><rect x="233.4" y="416.0" width="26.6" height="2.6" rx="1.3" fill="#3a241a" opacity="0.30"/><rect x="233.4" y="428.0" width="26.6" height="2.6" rx="1.3" fill="#3a241a" opacity="0.30"/><rect x="233.4" y="440.0" width="26.6" height="2.6" rx="1.3" fill="#3a241a" opacity="0.30"/><rect x="347.0" y="350.0" width="32.6" height="96.0" rx="2" class="v-shutter"/><rect x="350.0" y="356.0" width="26.6" height="2.6" rx="1.3" fill="#3a241a" opacity="0.30"/><rect x="350.0" y="368.0" width="26.6" height="2.6" rx="1.3" fill="#3a241a" opacity="0.30"/><rect x="350.0" y="380.0" width="26.6" height="2.6" rx="1.3" fill="#3a241a" opacity="0.30"/><rect x="350.0" y="392.0" width="26.6" height="2.6" rx="1.3" fill="#3a241a" opacity="0.30"/><rect x="350.0" y="404.0" width="26.6" height="2.6" rx="1.3" fill="#3a241a" opacity="0.30"/><rect x="350.0" y="416.0" width="26.6" height="2.6" rx="1.3" fill="#3a241a" opacity="0.30"/><rect x="350.0" y="428.0" width="26.6" height="2.6" rx="1.3" fill="#3a241a" opacity="0.30"/><rect x="350.0" y="440.0" width="26.6" height="2.6" rx="1.3" fill="#3a241a" opacity="0.30"/><rect x="261.0" y="343.0" width="88.0" height="110.0" rx="3" class="v-trim"/><rect x="268.0" y="350.0" width="74.0" height="96.0" fill="#3f5a68"/><path d="M 268.0 446.0 L 342.0 350.0 L 342.0 390.3 Z" fill="#587a8b" opacity="0.55"/><rect x="303.5" y="350.0" width="3" height="96.0" fill="#fbf4e8" opacity="0.85"/><rect x="268.0" y="393.2" width="74.0" height="3" fill="#fbf4e8" opacity="0.85"/><rect x="256.0" y="453.0" width="98.0" height="7" rx="2" class="v-trim"/>
<rect x="414.4" y="350.0" width="32.6" height="96.0" rx="2" class="v-shutter"/><rect x="417.4" y="356.0" width="26.6" height="2.6" rx="1.3" fill="#3a241a" opacity="0.30"/><rect x="417.4" y="368.0" width="26.6" height="2.6" rx="1.3" fill="#3a241a" opacity="0.30"/><rect x="417.4" y="380.0" width="26.6" height="2.6" rx="1.3" fill="#3a241a" opacity="0.30"/><rect x="417.4" y="392.0" width="26.6" height="2.6" rx="1.3" fill="#3a241a" opacity="0.30"/><rect x="417.4" y="404.0" width="26.6" height="2.6" rx="1.3" fill="#3a241a" opacity="0.30"/><rect x="417.4" y="416.0" width="26.6" height="2.6" rx="1.3" fill="#3a241a" opacity="0.30"/><rect x="417.4" y="428.0" width="26.6" height="2.6" rx="1.3" fill="#3a241a" opacity="0.30"/><rect x="417.4" y="440.0" width="26.6" height="2.6" rx="1.3" fill="#3a241a" opacity="0.30"/><rect x="531.0" y="350.0" width="32.6" height="96.0" rx="2" class="v-shutter"/><rect x="534.0" y="356.0" width="26.6" height="2.6" rx="1.3" fill="#3a241a" opacity="0.30"/><rect x="534.0" y="368.0" width="26.6" height="2.6" rx="1.3" fill="#3a241a" opacity="0.30"/><rect x="534.0" y="380.0" width="26.6" height="2.6" rx="1.3" fill="#3a241a" opacity="0.30"/><rect x="534.0" y="392.0" width="26.6" height="2.6" rx="1.3" fill="#3a241a" opacity="0.30"/><rect x="534.0" y="404.0" width="26.6" height="2.6" rx="1.3" fill="#3a241a" opacity="0.30"/><rect x="534.0" y="416.0" width="26.6" height="2.6" rx="1.3" fill="#3a241a" opacity="0.30"/><rect x="534.0" y="428.0" width="26.6" height="2.6" rx="1.3" fill="#3a241a" opacity="0.30"/><rect x="534.0" y="440.0" width="26.6" height="2.6" rx="1.3" fill="#3a241a" opacity="0.30"/><rect x="445.0" y="343.0" width="88.0" height="110.0" rx="3" class="v-trim"/><rect x="452.0" y="350.0" width="74.0" height="96.0" fill="#3f5a68"/><path d="M 452.0 446.0 L 526.0 350.0 L 526.0 390.3 Z" fill="#587a8b" opacity="0.55"/><rect x="487.5" y="350.0" width="3" height="96.0" fill="#fbf4e8" opacity="0.85"/><rect x="452.0" y="393.2" width="74.0" height="3" fill="#fbf4e8" opacity="0.85"/><rect x="440.0" y="453.0" width="98.0" height="7" rx="2" class="v-trim"/>
<path d="M 300 686 v -136 a 56 56 0 0 1 112 0 v 136 Z" class="v-trim"/>
<path d="M 312 686 v -128 a 44 44 0 0 1 88 0 v 128 Z" class="v-door"/>
<circle cx="386" cy="612" r="6" fill="#c9a227"/>
<rect x="324.0" y="670.0" width="160.0" height="16" rx="3" fill="#cbb9a6"/>
<rect x="310.0" y="684.0" width="188.0" height="16" rx="3" fill="#b09c88"/>
<rect x="457.1" y="500.0" width="29.9" height="88.0" rx="2" class="v-shutter"/><rect x="460.1" y="505.5" width="23.9" height="2.6" rx="1.3" fill="#3a241a" opacity="0.30"/><rect x="460.1" y="516.5" width="23.9" height="2.6" rx="1.3" fill="#3a241a" opacity="0.30"/><rect x="460.1" y="527.5" width="23.9" height="2.6" rx="1.3" fill="#3a241a" opacity="0.30"/><rect x="460.1" y="538.5" width="23.9" height="2.6" rx="1.3" fill="#3a241a" opacity="0.30"/><rect x="460.1" y="549.5" width="23.9" height="2.6" rx="1.3" fill="#3a241a" opacity="0.30"/><rect x="460.1" y="560.5" width="23.9" height="2.6" rx="1.3" fill="#3a241a" opacity="0.30"/><rect x="460.1" y="571.5" width="23.9" height="2.6" rx="1.3" fill="#3a241a" opacity="0.30"/><rect x="460.1" y="582.5" width="23.9" height="2.6" rx="1.3" fill="#3a241a" opacity="0.30"/><rect x="565.0" y="500.0" width="29.9" height="88.0" rx="2" class="v-shutter"/><rect x="568.0" y="505.5" width="23.9" height="2.6" rx="1.3" fill="#3a241a" opacity="0.30"/><rect x="568.0" y="516.5" width="23.9" height="2.6" rx="1.3" fill="#3a241a" opacity="0.30"/><rect x="568.0" y="527.5" width="23.9" height="2.6" rx="1.3" fill="#3a241a" opacity="0.30"/><rect x="568.0" y="538.5" width="23.9" height="2.6" rx="1.3" fill="#3a241a" opacity="0.30"/><rect x="568.0" y="549.5" width="23.9" height="2.6" rx="1.3" fill="#3a241a" opacity="0.30"/><rect x="568.0" y="560.5" width="23.9" height="2.6" rx="1.3" fill="#3a241a" opacity="0.30"/><rect x="568.0" y="571.5" width="23.9" height="2.6" rx="1.3" fill="#3a241a" opacity="0.30"/><rect x="568.0" y="582.5" width="23.9" height="2.6" rx="1.3" fill="#3a241a" opacity="0.30"/><rect x="485.0" y="493.0" width="82.0" height="102.0" rx="3" class="v-trim"/><rect x="492.0" y="500.0" width="68.0" height="88.0" fill="#3f5a68"/><path d="M 492.0 588.0 L 560.0 500.0 L 560.0 537.0 Z" fill="#587a8b" opacity="0.55"/><rect x="524.5" y="500.0" width="3" height="88.0" fill="#fbf4e8" opacity="0.85"/><rect x="492.0" y="539.6" width="68.0" height="3" fill="#fbf4e8" opacity="0.85"/><rect x="480.0" y="595.0" width="92.0" height="7" rx="2" class="v-trim"/>
<circle cx="740.1" cy="491.7" r="8.7" fill="#9c2c5e"/><circle cx="753.9" cy="487.3" r="10.1" fill="#c2417a"/><circle cx="682.7" cy="467.2" r="6.8" fill="#c2417a"/><circle cx="677.1" cy="466.0" r="6.1" fill="#c2417a"/><circle cx="693.2" cy="472.3" r="10.7" fill="#9c2c5e"/><circle cx="666.6" cy="454.0" r="6.4" fill="#c2417a"/><circle cx="726.2" cy="501.4" r="7.7" fill="#c2417a"/><circle cx="743.0" cy="435.5" r="9.1" fill="#c2417a"/><circle cx="721.1" cy="449.5" r="6.9" fill="#9c2c5e"/><circle cx="734.9" cy="495.5" r="9.9" fill="#c2417a"/><circle cx="707.9" cy="507.3" r="5.9" fill="#c2417a"/><circle cx="662.7" cy="458.9" r="6.1" fill="#c2417a"/><circle cx="702.6" cy="507.8" r="10.2" fill="#9c2c5e"/><circle cx="751.1" cy="482.5" r="6.2" fill="#c2417a"/><circle cx="683.4" cy="470.9" r="7.1" fill="#c2417a"/><circle cx="759.7" cy="457.0" r="6.7" fill="#c2417a"/><circle cx="706.7" cy="434.1" r="10.2" fill="#9c2c5e"/><circle cx="678.5" cy="468.4" r="8.2" fill="#c2417a"/><circle cx="734.6" cy="457.8" r="7.0" fill="#c2417a"/><circle cx="673.6" cy="454.7" r="10.4" fill="#c2417a"/><circle cx="706.2" cy="496.8" r="6.1" fill="#9c2c5e"/><circle cx="716.2" cy="508.9" r="9.3" fill="#c2417a"/><circle cx="741.9" cy="451.2" r="6.5" fill="#c2417a"/><circle cx="720.5" cy="428.2" r="8.8" fill="#c2417a"/><circle cx="673.9" cy="468.0" r="6.7" fill="#9c2c5e"/><circle cx="723.7" cy="493.1" r="10.6" fill="#c2417a"/><circle cx="740.4" cy="472.0" r="7.3" fill="#c2417a"/><circle cx="764.7" cy="461.3" r="6.4" fill="#c2417a"/><circle cx="711.0" cy="427.8" r="7.9" fill="#9c2c5e"/><circle cx="723.3" cy="485.9" r="7.8" fill="#c2417a"/><circle cx="699.3" cy="498.9" r="10.3" fill="#c2417a"/><circle cx="690.8" cy="495.0" r="6.7" fill="#c2417a"/><circle cx="664.4" cy="458.4" r="6.9" fill="#9c2c5e"/><circle cx="743.0" cy="491.6" r="7.6" fill="#c2417a"/><circle cx="722.2" cy="428.6" r="10.1" fill="#c2417a"/><circle cx="734.3" cy="472.5" r="8.4" fill="#c2417a"/><circle cx="756.6" cy="472.4" r="8.6" fill="#9c2c5e"/><circle cx="694.2" cy="438.9" r="7.6" fill="#c2417a"/><circle cx="743.5" cy="469.3" r="5.6" fill="#c2417a"/><circle cx="699.4" cy="508.0" r="6.0" fill="#c2417a"/><circle cx="720.2" cy="436.0" r="9.8" fill="#9c2c5e"/><circle cx="699.0" cy="442.5" r="9.4" fill="#c2417a"/><circle cx="686.9" cy="443.7" r="6.4" fill="#c2417a"/><circle cx="682.9" cy="490.4" r="9.7" fill="#c2417a"/><circle cx="762.9" cy="488.5" r="7.3" fill="#9c2c5e"/><circle cx="684.1" cy="503.6" r="6.8" fill="#c2417a"/>
<circle cx="838.8" cy="492.6" r="4.6" fill="#9c2c5e"/><circle cx="883.1" cy="469.0" r="6.0" fill="#c2417a"/><circle cx="844.0" cy="483.0" r="8.4" fill="#c2417a"/><circle cx="891.7" cy="495.8" r="7.1" fill="#c2417a"/><circle cx="860.3" cy="490.3" r="6.3" fill="#9c2c5e"/><circle cx="882.0" cy="505.0" r="8.0" fill="#c2417a"/><circle cx="841.3" cy="458.4" r="8.3" fill="#c2417a"/><circle cx="870.3" cy="487.1" r="6.4" fill="#c2417a"/><circle cx="838.9" cy="495.3" r="7.9" fill="#9c2c5e"/><circle cx="859.9" cy="489.5" r="8.7" fill="#c2417a"/><circle cx="863.6" cy="457.5" r="4.7" fill="#c2417a"/><circle cx="827.8" cy="494.9" r="5.2" fill="#c2417a"/><circle cx="872.7" cy="463.2" r="4.7" fill="#9c2c5e"/><circle cx="865.5" cy="479.5" r="7.5" fill="#c2417a"/><circle cx="822.3" cy="480.1" r="4.5" fill="#c2417a"/><circle cx="814.6" cy="502.9" r="6.0" fill="#c2417a"/><circle cx="888.9" cy="496.7" r="7.3" fill="#9c2c5e"/><circle cx="847.4" cy="454.5" r="5.2" fill="#c2417a"/><circle cx="822.7" cy="460.5" r="6.6" fill="#c2417a"/><circle cx="827.7" cy="474.5" r="5.7" fill="#c2417a"/><circle cx="848.8" cy="501.6" r="4.7" fill="#9c2c5e"/><circle cx="830.9" cy="507.5" r="8.3" fill="#c2417a"/><circle cx="834.6" cy="463.3" r="5.6" fill="#c2417a"/><circle cx="840.2" cy="494.3" r="8.6" fill="#c2417a"/><circle cx="842.8" cy="519.2" r="4.4" fill="#9c2c5e"/><circle cx="854.7" cy="452.6" r="7.1" fill="#c2417a"/><circle cx="870.4" cy="501.3" r="5.4" fill="#c2417a"/><circle cx="847.3" cy="488.9" r="7.8" fill="#c2417a"/><circle cx="866.8" cy="467.8" r="4.9" fill="#9c2c5e"/><circle cx="827.5" cy="471.4" r="8.1" fill="#c2417a"/><circle cx="876.8" cy="481.4" r="6.2" fill="#c2417a"/><circle cx="827.5" cy="474.6" r="5.7" fill="#c2417a"/><circle cx="868.9" cy="456.0" r="8.8" fill="#9c2c5e"/><circle cx="836.3" cy="496.8" r="6.8" fill="#c2417a"/><circle cx="847.2" cy="497.9" r="8.0" fill="#c2417a"/><circle cx="854.8" cy="481.5" r="7.0" fill="#c2417a"/><circle cx="832.6" cy="481.1" r="5.1" fill="#9c2c5e"/><circle cx="818.4" cy="494.9" r="7.6" fill="#c2417a"/><circle cx="855.1" cy="474.9" r="6.9" fill="#c2417a"/><circle cx="833.7" cy="468.7" r="5.5" fill="#c2417a"/><circle cx="835.1" cy="492.0" r="5.0" fill="#9c2c5e"/><circle cx="835.6" cy="488.9" r="7.1" fill="#c2417a"/><circle cx="856.5" cy="498.5" r="7.4" fill="#c2417a"/><circle cx="846.6" cy="482.8" r="8.6" fill="#c2417a"/><circle cx="848.2" cy="510.0" r="7.4" fill="#9c2c5e"/><circle cx="811.2" cy="474.2" r="8.1" fill="#c2417a"/>
<rect x="640.0" y="452" width="16" height="234" class="v-trim"/>
<rect x="748.0" y="452" width="16" height="234" class="v-trim"/>
<rect x="856.0" y="452" width="16" height="234" class="v-trim"/>
<rect x="628" y="440" width="244" height="14" rx="4" class="v-trim"/>
<rect x="636.0" y="430" width="9" height="16" rx="3" fill="#5b3524" opacity="0.55"/>
<rect x="663.0" y="430" width="9" height="16" rx="3" fill="#5b3524" opacity="0.55"/>
<rect x="690.0" y="430" width="9" height="16" rx="3" fill="#5b3524" opacity="0.55"/>
<rect x="717.0" y="430" width="9" height="16" rx="3" fill="#5b3524" opacity="0.55"/>
<rect x="744.0" y="430" width="9" height="16" rx="3" fill="#5b3524" opacity="0.55"/>
<rect x="771.0" y="430" width="9" height="16" rx="3" fill="#5b3524" opacity="0.55"/>
<rect x="798.0" y="430" width="9" height="16" rx="3" fill="#5b3524" opacity="0.55"/>
<rect x="825.0" y="430" width="9" height="16" rx="3" fill="#5b3524" opacity="0.55"/>
<rect x="852.0" y="430" width="9" height="16" rx="3" fill="#5b3524" opacity="0.55"/>
<path d="M 140 686 q 8 -74 22 -104 q 14 30 22 104 Z" fill="#3b5235"/>
<path d="M 156 686 L 101.8 662.8 L 168 686 Z" fill="#4f6b46"/>
<path d="M 156 686 L 114.5 624.3 L 168 686 Z" fill="#4f6b46"/>
<path d="M 156 686 L 136.8 598.3 L 168 686 Z" fill="#4f6b46"/>
<path d="M 156 686 L 162.0 590.0 L 168 686 Z" fill="#4f6b46"/>
<path d="M 156 686 L 187.2 598.3 L 168 686 Z" fill="#4f6b46"/>
<path d="M 156 686 L 209.5 624.3 L 168 686 Z" fill="#4f6b46"/>
<path d="M 156 686 L 222.2 662.8 L 168 686 Z" fill="#4f6b46"/>
<path d="M 92 686 l 10 -52 l 56 0 l 10 52 Z" class="v-trim"/>
<ellipse cx="932" cy="640" rx="46" ry="52" fill="#4f6b46"/>
<rect x="926" y="640" width="12" height="46" fill="#3b5235"/>
<g id="villa-painter"><rect x="548.0" y="418" width="9" height="270" rx="4.5" fill="#5b3524"/><rect x="592.0" y="418" width="9" height="270" rx="4.5" fill="#5b3524"/><rect x="548.0" y="452.0" width="53" height="7" rx="3.5" fill="#5b3524"/><rect x="548.0" y="492.0" width="53" height="7" rx="3.5" fill="#5b3524"/><rect x="548.0" y="532.0" width="53" height="7" rx="3.5" fill="#5b3524"/><rect x="548.0" y="572.0" width="53" height="7" rx="3.5" fill="#5b3524"/><rect x="548.0" y="612.0" width="53" height="7" rx="3.5" fill="#5b3524"/><rect x="548.0" y="652.0" width="53" height="7" rx="3.5" fill="#5b3524"/><path d="M 556.0 590 l 10 -48 l 24 0 l 8 48 Z" fill="#3d4f6b"/><rect x="553.0" y="492" width="50" height="60" rx="13" fill="#4a5f80"/><rect x="562.0" y="478" width="32" height="20" rx="8" fill="#e0a87e"/><circle cx="578.0" cy="460" r="22" fill="#e0a87e"/><path d="M 556.0 452 a 22 21 0 0 1 44 0 Z" class="v-door"/><path d="M 600.0 452 q 17 2 21 8 q -15 4 -23 2 Z" class="v-door"/><path d="M 600.0 500 q 30 -16 40 -54" stroke="#e0a87e" stroke-width="16" fill="none" stroke-linecap="round"/><rect x="630.0" y="384" width="8" height="72" rx="4" fill="#c9a227" transform="rotate(14 634.0 420)"/><rect x="618.0" y="360" width="40" height="17" rx="7" class="v-wall" stroke="#3a241a" stroke-width="3.5"/><rect x="618.0" y="360" width="40" height="118" class="v-wall" opacity="0.55"/></g>
</g></svg>