<svg xmlns="http://www.w3.org/2000/svg" viewBox="0 0 240 240" role="img" aria-label="Algarve Painter mascot"><path d="M 40.3 219.3 q 7.0 -35.2 75.7 -40.5 l 70.4 0 q 7.0 5.3 75.7 40.5 Z" fill="#d9a02b" stroke="#33200f" stroke-width="6.7" stroke-linejoin="round" stroke-linecap="round"/><ellipse cx="68.5" cy="198.2" rx="8.8" ry="5.3" fill="#c25a38" transform="rotate(-18 68.5 198.2)"/><circle cx="84.3" cy="208.7" r="4.4" fill="#c25a38"/><rect x="97.5" y="150.6" width="37.0" height="35.2" rx="10.6" fill="#c98d63" stroke="#33200f" stroke-width="6.7" stroke-linejoin="round" stroke-linecap="round"/><ellipse cx="62.3" cy="127.8" rx="10.6" ry="14.1" fill="#e5ac81" stroke="#33200f" stroke-width="6.7" stroke-linejoin="round" stroke-linecap="round"/><ellipse cx="169.7" cy="127.8" rx="10.6" ry="14.1" fill="#e5ac81" stroke="#33200f" stroke-width="6.7" stroke-linejoin="round" stroke-linecap="round"/><rect x="64.1" y="76.7" width="103.8" height="88.0" rx="30.8" fill="#e5ac81" stroke="#33200f" stroke-width="6.7" stroke-linejoin="round" stroke-linecap="round"/><path d="M 61.4 80.2 a 54.6 51.0 0 0 1 109.1 0 Z" fill="#c25a38" stroke="#33200f" stroke-width="6.7" stroke-linejoin="round" stroke-linecap="round"/><path d="M 142.4 82.0 q -54.6 6.2 -95.0 -2.6 q 13.2 -18.5 95.0 -3.5 Z" fill="#9e4128" stroke="#33200f" stroke-width="6.7" stroke-linejoin="round" stroke-linecap="round"/><rect x="63.2" y="66.2" width="105.6" height="13.2" fill="#d9a02b"/><circle cx="116.0" cy="32.7" r="7.0" fill="#d9a02b" stroke="#33200f" stroke-width="6.7" stroke-linejoin="round" stroke-linecap="round"/><path d="M 102.8 99.6 l -18.5 -3.5" fill="none" stroke="#3a241a" stroke-width="5.7" stroke-linecap="round"/><circle cx="93.1" cy="119.0" r="7.5" fill="#3a241a"/><circle cx="90.5" cy="116.3" r="2.8" fill="#fffdf7"/><path d="M 129.2 99.6 l 18.5 -3.5" fill="none" stroke="#3a241a" stroke-width="5.7" stroke-linecap="round"/><circle cx="138.9" cy="119.0" r="7.5" fill="#3a241a"/><circle cx="136.2" cy="116.3" r="2.8" fill="#fffdf7"/><path d="M 111.6 127.8 q 7.9 10.6 12.3 0.9" fill="none" stroke="#c98d63" stroke-width="6.2" stroke-linecap="round"/><path d="M 116.0 141.8 q -7.9 -9.7 -29.0 -6.2 q -7.9 1.8 1.8 10.6 q 8.8 7.0 27.3 1.8 q 8.8 -4.4 0.0 -6.2 Z" fill="#3a241a"/><path d="M 103.7 155.9 q 12.3 9.7 24.6 0.0" fill="none" stroke="#3a241a" stroke-width="5.3" stroke-linecap="round"/><g transform="rotate(-14 205.8 145.4)"><path d="M 186.4 152.4 l 22.9 0 l -2.6 68.6 l -17.6 0 Z" fill="#b8813f" stroke="#33200f" stroke-width="6.7" stroke-linejoin="round" stroke-linecap="round"/><rect x="182.9" y="126.0" width="29.9" height="26.4" rx="4.4" fill="#c9ccd1" stroke="#33200f" stroke-width="6.7" stroke-linejoin="round" stroke-linecap="round"/><rect x="182.9" y="133.9" width="29.9" height="4.4" fill="#9aa1a9"/><path d="M 181.1 127.8 l 33.4 0 l -4.4 -35.2 q -12.3 -5.3 -24.6 0 Z" fill="#c25a38" stroke="#33200f" stroke-width="6.7" stroke-linejoin="round" stroke-linecap="round"/><path d="M 190.8 123.4 l -2.6 -23.8" stroke="#33200f" stroke-width="2.1" opacity="0.40"/><path d="M 198.7 123.4 l -2.6 -23.8" stroke="#33200f" stroke-width="2.1" opacity="0.40"/><path d="M 205.8 123.4 l -2.6 -23.8" stroke="#33200f" stroke-width="2.1" opacity="0.40"/></g><path d="M 172.3 203.4 q 8.8 -17.6 33.4 -12.3 l 7.9 21.1 q -10.6 12.3 -33.4 7.0 Z" fill="#e5ac81" stroke="#33200f" stroke-width="6.7" stroke-linejoin="round" stroke-linecap="round"/><path d="M 214.6 80.2 q -5.3 11.4 0.0 17.6 q 5.3 -6.2 0.0 -17.6 Z" fill="#c25a38"/><circle cx="214.6" cy="104.9" r="4.9" fill="#c25a38"/></svg>